<mxfile host="Electron" modified="2024-03-07T10:44:37.443Z" agent="Mozilla/5.0 (Windows NT 10.0; Win64; x64) AppleWebKit/537.36 (KHTML, like Gecko) draw.io/21.7.5 Chrome/114.0.5735.289 Electron/25.8.1 Safari/537.36" etag="lF70R3Ii-kZ4YfARXu7t" version="21.7.5" type="device">
  <diagram name="Página-1" id="5p1yYxbYOa13pW53fWhO">
    <mxGraphModel dx="2580" dy="1242" grid="1" gridSize="10" guides="1" tooltips="1" connect="1" arrows="1" fold="1" page="1" pageScale="1" pageWidth="827" pageHeight="1169" math="0" shadow="0">
      <root>
        <mxCell id="0" />
        <mxCell id="1" parent="0" />
        <mxCell id="NSPqOHQaHKHHC36vEacj-15" value="" style="swimlane;startSize=0;" vertex="1" parent="1">
          <mxGeometry x="220" y="50" width="580" height="317.5" as="geometry" />
        </mxCell>
        <mxCell id="NSPqOHQaHKHHC36vEacj-33" value="EMP" style="swimlane;fontStyle=0;childLayout=stackLayout;horizontal=1;startSize=26;horizontalStack=0;resizeParent=1;resizeParentMax=0;resizeLast=0;collapsible=1;marginBottom=0;align=center;fontSize=14;" vertex="1" parent="NSPqOHQaHKHHC36vEacj-15">
          <mxGeometry x="50" y="28.75" width="160" height="250" as="geometry" />
        </mxCell>
        <mxCell id="NSPqOHQaHKHHC36vEacj-34" value="companyid (PK)&lt;br&gt;&lt;br&gt;name_emp&lt;br&gt;&lt;br&gt;mail_emp&lt;br&gt;&lt;br&gt;ubicacion&lt;br&gt;&lt;br&gt;status&lt;br&gt;&lt;br&gt;IVA&lt;br&gt;&lt;br&gt;fecha_inicio&lt;br&gt;&lt;br&gt;fecha_final" style="text;strokeColor=none;fillColor=none;spacingLeft=4;spacingRight=4;overflow=hidden;rotatable=0;points=[[0,0.5],[1,0.5]];portConstraint=eastwest;fontSize=12;whiteSpace=wrap;html=1;" vertex="1" parent="NSPqOHQaHKHHC36vEacj-33">
          <mxGeometry y="26" width="160" height="224" as="geometry" />
        </mxCell>
        <mxCell id="NSPqOHQaHKHHC36vEacj-56" value="administrador" style="swimlane;fontStyle=0;childLayout=stackLayout;horizontal=1;startSize=26;horizontalStack=0;resizeParent=1;resizeParentMax=0;resizeLast=0;collapsible=1;marginBottom=0;align=center;fontSize=14;" vertex="1" parent="NSPqOHQaHKHHC36vEacj-15">
          <mxGeometry x="380" y="45" width="160" height="140" as="geometry" />
        </mxCell>
        <mxCell id="NSPqOHQaHKHHC36vEacj-57" value="ID_admin&amp;nbsp;(PK)&lt;br&gt;&lt;br&gt;user_admin&lt;br&gt;&lt;br&gt;contraseña_admin&lt;br&gt;&lt;br&gt;companyid (FK)" style="text;strokeColor=none;fillColor=none;spacingLeft=4;spacingRight=4;overflow=hidden;rotatable=0;points=[[0,0.5],[1,0.5]];portConstraint=eastwest;fontSize=12;whiteSpace=wrap;html=1;" vertex="1" parent="NSPqOHQaHKHHC36vEacj-56">
          <mxGeometry y="26" width="160" height="114" as="geometry" />
        </mxCell>
        <mxCell id="NSPqOHQaHKHHC36vEacj-60" style="edgeStyle=orthogonalEdgeStyle;rounded=0;orthogonalLoop=1;jettySize=auto;html=1;exitX=1;exitY=0.5;exitDx=0;exitDy=0;entryX=0;entryY=0.5;entryDx=0;entryDy=0;" edge="1" parent="NSPqOHQaHKHHC36vEacj-15" source="NSPqOHQaHKHHC36vEacj-34" target="NSPqOHQaHKHHC36vEacj-56">
          <mxGeometry relative="1" as="geometry" />
        </mxCell>
        <mxCell id="NSPqOHQaHKHHC36vEacj-17" value="BD master" style="text;html=1;strokeColor=none;fillColor=none;align=center;verticalAlign=middle;whiteSpace=wrap;rounded=0;" vertex="1" parent="1">
          <mxGeometry x="220" y="15" width="60" height="30" as="geometry" />
        </mxCell>
        <mxCell id="NSPqOHQaHKHHC36vEacj-54" value="" style="endArrow=classic;html=1;rounded=0;entryX=-0.007;entryY=0.108;entryDx=0;entryDy=0;entryPerimeter=0;exitX=-0.013;exitY=0.098;exitDx=0;exitDy=0;exitPerimeter=0;" edge="1" parent="1" source="NSPqOHQaHKHHC36vEacj-34" target="NSPqOHQaHKHHC36vEacj-44">
          <mxGeometry width="50" height="50" relative="1" as="geometry">
            <mxPoint x="50" y="450" as="sourcePoint" />
            <mxPoint x="100" y="400" as="targetPoint" />
            <Array as="points">
              <mxPoint x="60" y="125" />
              <mxPoint x="60" y="599" />
            </Array>
          </mxGeometry>
        </mxCell>
        <mxCell id="NSPqOHQaHKHHC36vEacj-55" value="&lt;font style=&quot;font-size: 12px;&quot;&gt;subBD&amp;nbsp;(sistn_companyid)&lt;/font&gt;" style="text;html=1;strokeColor=none;fillColor=none;align=center;verticalAlign=middle;whiteSpace=wrap;rounded=0;" vertex="1" parent="1">
          <mxGeometry x="150" y="499" width="60" height="30" as="geometry" />
        </mxCell>
        <mxCell id="NSPqOHQaHKHHC36vEacj-44" value="" style="swimlane;startSize=0;" vertex="1" parent="1">
          <mxGeometry x="110" y="529" width="1040" height="640" as="geometry" />
        </mxCell>
        <mxCell id="NSPqOHQaHKHHC36vEacj-40" value="cliente" style="swimlane;fontStyle=0;childLayout=stackLayout;horizontal=1;startSize=26;horizontalStack=0;resizeParent=1;resizeParentMax=0;resizeLast=0;collapsible=1;marginBottom=0;align=center;fontSize=14;" vertex="1" parent="NSPqOHQaHKHHC36vEacj-44">
          <mxGeometry x="15" y="42" width="160" height="170" as="geometry" />
        </mxCell>
        <mxCell id="NSPqOHQaHKHHC36vEacj-41" value="ID_cliente (PK)&lt;br&gt;&lt;br&gt;name_cliente&lt;br&gt;&lt;br&gt;edad_cliente&lt;br&gt;&lt;br&gt;mail_cliente&lt;br&gt;&lt;br&gt;companyid&amp;nbsp;" style="text;strokeColor=none;fillColor=none;spacingLeft=4;spacingRight=4;overflow=hidden;rotatable=0;points=[[0,0.5],[1,0.5]];portConstraint=eastwest;fontSize=12;whiteSpace=wrap;html=1;" vertex="1" parent="NSPqOHQaHKHHC36vEacj-40">
          <mxGeometry y="26" width="160" height="144" as="geometry" />
        </mxCell>
        <mxCell id="NSPqOHQaHKHHC36vEacj-46" value="producto" style="swimlane;fontStyle=0;childLayout=stackLayout;horizontal=1;startSize=26;horizontalStack=0;resizeParent=1;resizeParentMax=0;resizeLast=0;collapsible=1;marginBottom=0;align=center;fontSize=14;" vertex="1" parent="NSPqOHQaHKHHC36vEacj-44">
          <mxGeometry x="210" y="10" width="160" height="230" as="geometry" />
        </mxCell>
        <mxCell id="NSPqOHQaHKHHC36vEacj-47" value="cod_producto (PK)&lt;br&gt;&lt;br&gt;ID_vendedor&lt;br&gt;&lt;br&gt;name_producto&lt;br&gt;&lt;br&gt;precio_unitario&lt;br&gt;&lt;br&gt;cant_producto_min&lt;br&gt;&lt;br&gt;productos_alt&lt;br&gt;&lt;br&gt;companyid&amp;nbsp;" style="text;strokeColor=none;fillColor=none;spacingLeft=4;spacingRight=4;overflow=hidden;rotatable=0;points=[[0,0.5],[1,0.5]];portConstraint=eastwest;fontSize=12;whiteSpace=wrap;html=1;" vertex="1" parent="NSPqOHQaHKHHC36vEacj-46">
          <mxGeometry y="26" width="160" height="204" as="geometry" />
        </mxCell>
        <mxCell id="NSPqOHQaHKHHC36vEacj-137" style="edgeStyle=orthogonalEdgeStyle;rounded=0;orthogonalLoop=1;jettySize=auto;html=1;exitX=0.25;exitY=0;exitDx=0;exitDy=0;entryX=1;entryY=0.5;entryDx=0;entryDy=0;" edge="1" parent="NSPqOHQaHKHHC36vEacj-44" source="NSPqOHQaHKHHC36vEacj-50" target="NSPqOHQaHKHHC36vEacj-131">
          <mxGeometry relative="1" as="geometry" />
        </mxCell>
        <mxCell id="NSPqOHQaHKHHC36vEacj-50" value="vendedor" style="swimlane;fontStyle=0;childLayout=stackLayout;horizontal=1;startSize=26;horizontalStack=0;resizeParent=1;resizeParentMax=0;resizeLast=0;collapsible=1;marginBottom=0;align=center;fontSize=14;" vertex="1" parent="NSPqOHQaHKHHC36vEacj-44">
          <mxGeometry x="600" y="250" width="160" height="170" as="geometry" />
        </mxCell>
        <mxCell id="NSPqOHQaHKHHC36vEacj-51" value="ID_vendedor (PK)&lt;br&gt;&lt;br&gt;name_vendedor&lt;br&gt;&lt;br&gt;mail_vendedor&lt;br&gt;&lt;br&gt;fecha_inicio&lt;br&gt;&lt;br&gt;companyid&amp;nbsp;" style="text;strokeColor=none;fillColor=none;spacingLeft=4;spacingRight=4;overflow=hidden;rotatable=0;points=[[0,0.5],[1,0.5]];portConstraint=eastwest;fontSize=12;whiteSpace=wrap;html=1;" vertex="1" parent="NSPqOHQaHKHHC36vEacj-50">
          <mxGeometry y="26" width="160" height="144" as="geometry" />
        </mxCell>
        <mxCell id="NSPqOHQaHKHHC36vEacj-66" value="stock" style="swimlane;fontStyle=0;childLayout=stackLayout;horizontal=1;startSize=26;horizontalStack=0;resizeParent=1;resizeParentMax=0;resizeLast=0;collapsible=1;marginBottom=0;align=center;fontSize=14;" vertex="1" parent="NSPqOHQaHKHHC36vEacj-44">
          <mxGeometry x="333" y="270" width="160" height="140" as="geometry" />
        </mxCell>
        <mxCell id="NSPqOHQaHKHHC36vEacj-67" value="cod_stock (PK)&lt;br&gt;&lt;br&gt;cod_producto (FK)&lt;br&gt;&lt;br&gt;estado&amp;nbsp;&lt;br&gt;&lt;br&gt;companyid" style="text;strokeColor=none;fillColor=none;spacingLeft=4;spacingRight=4;overflow=hidden;rotatable=0;points=[[0,0.5],[1,0.5]];portConstraint=eastwest;fontSize=12;whiteSpace=wrap;html=1;" vertex="1" parent="NSPqOHQaHKHHC36vEacj-66">
          <mxGeometry y="26" width="160" height="114" as="geometry" />
        </mxCell>
        <mxCell id="NSPqOHQaHKHHC36vEacj-71" value="" style="endArrow=classic;html=1;rounded=0;exitX=0.492;exitY=1.035;exitDx=0;exitDy=0;exitPerimeter=0;entryX=-0.008;entryY=0.381;entryDx=0;entryDy=0;entryPerimeter=0;" edge="1" parent="NSPqOHQaHKHHC36vEacj-44" source="NSPqOHQaHKHHC36vEacj-47" target="NSPqOHQaHKHHC36vEacj-67">
          <mxGeometry width="50" height="50" relative="1" as="geometry">
            <mxPoint x="260" y="300" as="sourcePoint" />
            <mxPoint x="310" y="250" as="targetPoint" />
            <Array as="points">
              <mxPoint x="290" y="339" />
            </Array>
          </mxGeometry>
        </mxCell>
        <mxCell id="NSPqOHQaHKHHC36vEacj-87" value="informes" style="swimlane;fontStyle=0;childLayout=stackLayout;horizontal=1;startSize=26;horizontalStack=0;resizeParent=1;resizeParentMax=0;resizeLast=0;collapsible=1;marginBottom=0;align=center;fontSize=14;" vertex="1" parent="NSPqOHQaHKHHC36vEacj-44">
          <mxGeometry x="440" y="459" width="160" height="160" as="geometry" />
        </mxCell>
        <mxCell id="NSPqOHQaHKHHC36vEacj-88" value="&lt;div&gt;&lt;span style=&quot;background-color: initial;&quot;&gt;ID_ventas (FK - PK)&lt;/span&gt;&lt;br&gt;&lt;/div&gt;&lt;div&gt;&lt;br&gt;&lt;/div&gt;&lt;div&gt;ID_cliente (FK - PK)&lt;/div&gt;&lt;div&gt;&lt;br&gt;&lt;/div&gt;&lt;div&gt;fecha&lt;/div&gt;&lt;div&gt;&lt;br&gt;&lt;/div&gt;&lt;div&gt;companyid&amp;nbsp;&lt;/div&gt;" style="text;strokeColor=none;fillColor=none;spacingLeft=4;spacingRight=4;overflow=hidden;rotatable=0;points=[[0,0.5],[1,0.5]];portConstraint=eastwest;fontSize=12;whiteSpace=wrap;html=1;" vertex="1" parent="NSPqOHQaHKHHC36vEacj-87">
          <mxGeometry y="26" width="160" height="134" as="geometry" />
        </mxCell>
        <mxCell id="NSPqOHQaHKHHC36vEacj-98" style="edgeStyle=orthogonalEdgeStyle;rounded=0;orthogonalLoop=1;jettySize=auto;html=1;exitX=0.75;exitY=0;exitDx=0;exitDy=0;entryX=1;entryY=0.5;entryDx=0;entryDy=0;" edge="1" parent="NSPqOHQaHKHHC36vEacj-44" source="NSPqOHQaHKHHC36vEacj-94" target="NSPqOHQaHKHHC36vEacj-101">
          <mxGeometry relative="1" as="geometry" />
        </mxCell>
        <mxCell id="NSPqOHQaHKHHC36vEacj-94" value="proveedore" style="swimlane;fontStyle=0;childLayout=stackLayout;horizontal=1;startSize=26;horizontalStack=0;resizeParent=1;resizeParentMax=0;resizeLast=0;collapsible=1;marginBottom=0;align=center;fontSize=14;" vertex="1" parent="NSPqOHQaHKHHC36vEacj-44">
          <mxGeometry x="810" y="457" width="160" height="160" as="geometry" />
        </mxCell>
        <mxCell id="NSPqOHQaHKHHC36vEacj-95" value="ID_proveedor (PK)&lt;br&gt;&lt;br&gt;name_proveedor&lt;br&gt;&lt;br&gt;tel_proveedor&lt;br&gt;&lt;br&gt;mail_proveedor&lt;br&gt;&lt;br&gt;companyid&amp;nbsp;" style="text;strokeColor=none;fillColor=none;spacingLeft=4;spacingRight=4;overflow=hidden;rotatable=0;points=[[0,0.5],[1,0.5]];portConstraint=eastwest;fontSize=12;whiteSpace=wrap;html=1;" vertex="1" parent="NSPqOHQaHKHHC36vEacj-94">
          <mxGeometry y="26" width="160" height="134" as="geometry" />
        </mxCell>
        <mxCell id="NSPqOHQaHKHHC36vEacj-103" style="edgeStyle=orthogonalEdgeStyle;rounded=0;orthogonalLoop=1;jettySize=auto;html=1;exitX=1;exitY=0.5;exitDx=0;exitDy=0;entryX=0;entryY=0.5;entryDx=0;entryDy=0;" edge="1" parent="NSPqOHQaHKHHC36vEacj-44" source="NSPqOHQaHKHHC36vEacj-51" target="NSPqOHQaHKHHC36vEacj-101">
          <mxGeometry relative="1" as="geometry" />
        </mxCell>
        <mxCell id="NSPqOHQaHKHHC36vEacj-99" value="venta_proveedor" style="swimlane;fontStyle=0;childLayout=stackLayout;horizontal=1;startSize=26;horizontalStack=0;resizeParent=1;resizeParentMax=0;resizeLast=0;collapsible=1;marginBottom=0;align=center;fontSize=14;" vertex="1" parent="NSPqOHQaHKHHC36vEacj-44">
          <mxGeometry x="830" y="31" width="160" height="230" as="geometry" />
        </mxCell>
        <mxCell id="NSPqOHQaHKHHC36vEacj-101" value="ID_vendedor (FK - PK)&lt;br&gt;&lt;br&gt;ID_proveedor&amp;nbsp; (FK - PK)&lt;br&gt;&lt;br&gt;fecha&lt;br&gt;&lt;br&gt;name_producto&lt;br&gt;&lt;br&gt;cant&lt;br&gt;&lt;br&gt;precio total&lt;br&gt;&lt;br&gt;companyid" style="text;strokeColor=none;fillColor=none;spacingLeft=4;spacingRight=4;overflow=hidden;rotatable=0;points=[[0,0.5],[1,0.5]];portConstraint=eastwest;fontSize=12;whiteSpace=wrap;html=1;" vertex="1" parent="NSPqOHQaHKHHC36vEacj-99">
          <mxGeometry y="26" width="160" height="204" as="geometry" />
        </mxCell>
        <mxCell id="NSPqOHQaHKHHC36vEacj-135" style="edgeStyle=orthogonalEdgeStyle;rounded=0;orthogonalLoop=1;jettySize=auto;html=1;exitX=1;exitY=0.5;exitDx=0;exitDy=0;entryX=0;entryY=0.5;entryDx=0;entryDy=0;" edge="1" parent="NSPqOHQaHKHHC36vEacj-44" source="NSPqOHQaHKHHC36vEacj-47" target="NSPqOHQaHKHHC36vEacj-131">
          <mxGeometry relative="1" as="geometry" />
        </mxCell>
        <mxCell id="NSPqOHQaHKHHC36vEacj-130" value="ventas" style="swimlane;fontStyle=0;childLayout=stackLayout;horizontal=1;startSize=26;horizontalStack=0;resizeParent=1;resizeParentMax=0;resizeLast=0;collapsible=1;marginBottom=0;align=center;fontSize=14;" vertex="1" parent="NSPqOHQaHKHHC36vEacj-44">
          <mxGeometry x="420" y="31" width="160" height="220" as="geometry" />
        </mxCell>
        <mxCell id="NSPqOHQaHKHHC36vEacj-136" style="edgeStyle=orthogonalEdgeStyle;rounded=0;orthogonalLoop=1;jettySize=auto;html=1;exitX=1;exitY=0.5;exitDx=0;exitDy=0;entryX=1;entryY=0.5;entryDx=0;entryDy=0;" edge="1" parent="NSPqOHQaHKHHC36vEacj-130" source="NSPqOHQaHKHHC36vEacj-131" target="NSPqOHQaHKHHC36vEacj-130">
          <mxGeometry relative="1" as="geometry" />
        </mxCell>
        <mxCell id="NSPqOHQaHKHHC36vEacj-131" value="cod_producto (FK - PK)&lt;br&gt;&lt;br&gt;ID_vendedor (FK - PK)&lt;br&gt;&lt;br&gt;precio_total&lt;br&gt;&lt;br&gt;cant_producto&lt;br&gt;&lt;br&gt;fecha&lt;br&gt;&lt;br&gt;descuentos&lt;br&gt;&lt;br&gt;companyid" style="text;strokeColor=none;fillColor=none;spacingLeft=4;spacingRight=4;overflow=hidden;rotatable=0;points=[[0,0.5],[1,0.5]];portConstraint=eastwest;fontSize=12;whiteSpace=wrap;html=1;" vertex="1" parent="NSPqOHQaHKHHC36vEacj-130">
          <mxGeometry y="26" width="160" height="194" as="geometry" />
        </mxCell>
        <mxCell id="NSPqOHQaHKHHC36vEacj-138" value="" style="endArrow=classic;html=1;rounded=0;exitX=0.705;exitY=1.024;exitDx=0;exitDy=0;exitPerimeter=0;entryX=0.595;entryY=0.005;entryDx=0;entryDy=0;entryPerimeter=0;" edge="1" parent="NSPqOHQaHKHHC36vEacj-44" source="NSPqOHQaHKHHC36vEacj-131" target="NSPqOHQaHKHHC36vEacj-87">
          <mxGeometry width="50" height="50" relative="1" as="geometry">
            <mxPoint x="530" y="431" as="sourcePoint" />
            <mxPoint x="580" y="381" as="targetPoint" />
          </mxGeometry>
        </mxCell>
        <mxCell id="NSPqOHQaHKHHC36vEacj-139" value="" style="endArrow=classic;html=1;rounded=0;exitX=0.931;exitY=1.037;exitDx=0;exitDy=0;exitPerimeter=0;entryX=0;entryY=0.5;entryDx=0;entryDy=0;" edge="1" parent="NSPqOHQaHKHHC36vEacj-44" source="NSPqOHQaHKHHC36vEacj-41" target="NSPqOHQaHKHHC36vEacj-88">
          <mxGeometry width="50" height="50" relative="1" as="geometry">
            <mxPoint x="250" y="431" as="sourcePoint" />
            <mxPoint x="300" y="381" as="targetPoint" />
            <Array as="points">
              <mxPoint x="164" y="351" />
              <mxPoint x="164" y="551" />
            </Array>
          </mxGeometry>
        </mxCell>
      </root>
    </mxGraphModel>
  </diagram>
</mxfile>
